<mxfile host="Electron" modified="2025-02-25T07:37:54.457Z" agent="Mozilla/5.0 (Windows NT 10.0; Win64; x64) AppleWebKit/537.36 (KHTML, like Gecko) draw.io/22.0.2 Chrome/114.0.5735.289 Electron/25.8.4 Safari/537.36" etag="aQ2S2n_Bd0CQ0r8RX5He" version="22.0.2" type="device">
  <diagram name="Page-1" id="2YBvvXClWsGukQMizWep">
    <mxGraphModel dx="1036" dy="606" grid="1" gridSize="10" guides="1" tooltips="1" connect="1" arrows="1" fold="1" page="1" pageScale="1" pageWidth="850" pageHeight="1100" background="#ffffff" math="0" shadow="1">
      <root>
        <mxCell id="0" />
        <mxCell id="1" parent="0" />
        <mxCell id="J-zH-HObwTacu_c3C7OP-35" value="&lt;font style=&quot;font-size: 16px;&quot;&gt;Diagramme de SÃ©quence (OptiRH) - REALEASE 01 - Users&lt;/font&gt;" style="swimlane;whiteSpace=wrap;html=1;rounded=1;strokeColor=#E07A5F;fontColor=#393C56;fillColor=#F2CC8F;startSize=30;shadow=1;labelBackgroundColor=none;" parent="1" vertex="1">
          <mxGeometry x="5" width="670" height="545" as="geometry" />
        </mxCell>
        <mxCell id="J-zH-HObwTacu_c3C7OP-56" value="" style="shape=umlLifeline;perimeter=lifelinePerimeter;whiteSpace=wrap;html=1;container=1;dropTarget=0;collapsible=0;recursiveResize=0;outlineConnect=0;portConstraint=eastwest;newEdgeStyle={&quot;curved&quot;:0,&quot;rounded&quot;:0};participant=umlActor;labelBackgroundColor=none;fillColor=#F2CC8F;strokeColor=#E07A5F;fontColor=#393C56;" parent="J-zH-HObwTacu_c3C7OP-35" vertex="1">
          <mxGeometry x="25" y="70" width="20" height="450" as="geometry" />
        </mxCell>
        <mxCell id="J-zH-HObwTacu_c3C7OP-58" value="" style="html=1;points=[[0,0,0,0,5],[0,1,0,0,-5],[1,0,0,0,5],[1,1,0,0,-5]];perimeter=orthogonalPerimeter;outlineConnect=0;targetShapes=umlLifeline;portConstraint=eastwest;newEdgeStyle={&quot;curved&quot;:0,&quot;rounded&quot;:0};strokeColor=#E07A5F;fontColor=#393C56;fillColor=#F2CC8F;labelBackgroundColor=none;" parent="J-zH-HObwTacu_c3C7OP-56" vertex="1">
          <mxGeometry x="5" y="50" width="10" height="370" as="geometry" />
        </mxCell>
        <mxCell id="J-zH-HObwTacu_c3C7OP-102" value="&lt;font color=&quot;#000000&quot;&gt;Admin&lt;/font&gt;" style="text;html=1;align=center;verticalAlign=middle;resizable=0;points=[];autosize=1;strokeColor=none;fillColor=none;fontColor=#393C56;labelBackgroundColor=none;" parent="J-zH-HObwTacu_c3C7OP-35" vertex="1">
          <mxGeometry x="5" y="48" width="60" height="30" as="geometry" />
        </mxCell>
        <mxCell id="bPGM_ZroRcGLQEkL-e1h-3" value="" style="shape=umlLifeline;perimeter=lifelinePerimeter;whiteSpace=wrap;html=1;container=1;dropTarget=0;collapsible=0;recursiveResize=0;outlineConnect=0;portConstraint=eastwest;newEdgeStyle={&quot;curved&quot;:0,&quot;rounded&quot;:0};participant=umlBoundary;strokeColor=#E07A5F;fontColor=#393C56;fillColor=#F2CC8F;align=center;labelBackgroundColor=none;" parent="J-zH-HObwTacu_c3C7OP-35" vertex="1">
          <mxGeometry x="87" y="75" width="50" height="445" as="geometry" />
        </mxCell>
        <mxCell id="bPGM_ZroRcGLQEkL-e1h-19" value="" style="html=1;points=[[0,0,0,0,5],[0,1,0,0,-5],[1,0,0,0,5],[1,1,0,0,-5]];perimeter=orthogonalPerimeter;outlineConnect=0;targetShapes=umlLifeline;portConstraint=eastwest;newEdgeStyle={&quot;curved&quot;:0,&quot;rounded&quot;:0};strokeColor=#E07A5F;fontColor=#393C56;fillColor=#F2CC8F;labelBackgroundColor=none;" parent="bPGM_ZroRcGLQEkL-e1h-3" vertex="1">
          <mxGeometry x="22" y="62" width="10" height="338" as="geometry" />
        </mxCell>
        <mxCell id="bPGM_ZroRcGLQEkL-e1h-5" value="&lt;blockquote style=&quot;margin: 0 0 0 40px; border: none; padding: 0px;&quot;&gt;&lt;font color=&quot;#000000&quot;&gt;Users Page&lt;/font&gt;&lt;/blockquote&gt;" style="text;html=1;align=left;verticalAlign=middle;resizable=0;points=[];autosize=1;strokeColor=none;fillColor=none;fontColor=#393C56;labelBackgroundColor=none;" parent="J-zH-HObwTacu_c3C7OP-35" vertex="1">
          <mxGeometry x="45" y="49" width="130" height="30" as="geometry" />
        </mxCell>
        <mxCell id="bPGM_ZroRcGLQEkL-e1h-6" value="&lt;font color=&quot;#000000&quot;&gt;User&lt;br&gt;&lt;/font&gt;Model" style="text;html=1;align=center;verticalAlign=middle;resizable=0;points=[];autosize=1;strokeColor=none;fillColor=none;fontColor=#393C56;labelBackgroundColor=none;" parent="J-zH-HObwTacu_c3C7OP-35" vertex="1">
          <mxGeometry x="522.75" y="43" width="60" height="40" as="geometry" />
        </mxCell>
        <mxCell id="bPGM_ZroRcGLQEkL-e1h-15" value="" style="shape=umlLifeline;perimeter=lifelinePerimeter;whiteSpace=wrap;html=1;container=1;dropTarget=0;collapsible=0;recursiveResize=0;outlineConnect=0;portConstraint=eastwest;newEdgeStyle={&quot;curved&quot;:0,&quot;rounded&quot;:0};participant=umlBoundary;strokeColor=#E07A5F;fontColor=#393C56;fillColor=#F2CC8F;align=center;labelBackgroundColor=none;" parent="J-zH-HObwTacu_c3C7OP-35" vertex="1">
          <mxGeometry x="189.5" y="79" width="50" height="441" as="geometry" />
        </mxCell>
        <mxCell id="6rjCPDDQQb5l-QRya6gR-1" value="" style="html=1;points=[[0,0,0,0,5],[0,1,0,0,-5],[1,0,0,0,5],[1,1,0,0,-5]];perimeter=orthogonalPerimeter;outlineConnect=0;targetShapes=umlLifeline;portConstraint=eastwest;newEdgeStyle={&quot;curved&quot;:0,&quot;rounded&quot;:0};strokeColor=#E07A5F;fontColor=#393C56;fillColor=#F2CC8F;labelBackgroundColor=none;" vertex="1" parent="bPGM_ZroRcGLQEkL-e1h-15">
          <mxGeometry x="20" y="286" width="10" height="48" as="geometry" />
        </mxCell>
        <mxCell id="bPGM_ZroRcGLQEkL-e1h-16" value="&lt;font color=&quot;#000000&quot;&gt;File Location&lt;br&gt;Page&lt;br&gt;&lt;/font&gt;" style="text;html=1;align=center;verticalAlign=middle;resizable=0;points=[];autosize=1;strokeColor=none;fillColor=none;fontColor=#393C56;labelBackgroundColor=none;" parent="J-zH-HObwTacu_c3C7OP-35" vertex="1">
          <mxGeometry x="169.5" y="44" width="90" height="40" as="geometry" />
        </mxCell>
        <mxCell id="bPGM_ZroRcGLQEkL-e1h-28" value="&lt;font color=&quot;#000000&quot;&gt;getUsersList()&lt;/font&gt;" style="html=1;verticalAlign=bottom;endArrow=block;curved=0;rounded=0;entryX=0;entryY=0;entryDx=0;entryDy=5;strokeColor=#E07A5F;fontColor=default;fillColor=#F2CC8F;labelBackgroundColor=none;" parent="J-zH-HObwTacu_c3C7OP-35" source="6rjCPDDQQb5l-QRya6gR-26" target="bPGM_ZroRcGLQEkL-e1h-27" edge="1">
          <mxGeometry relative="1" as="geometry">
            <mxPoint x="345" y="155" as="sourcePoint" />
            <mxPoint as="offset" />
          </mxGeometry>
        </mxCell>
        <mxCell id="bPGM_ZroRcGLQEkL-e1h-29" value="&lt;font color=&quot;#000000&quot;&gt;List&amp;lt;User&amp;gt;&lt;/font&gt;" style="html=1;verticalAlign=bottom;endArrow=open;dashed=1;endSize=8;curved=0;rounded=0;exitX=0;exitY=1;exitDx=0;exitDy=-5;strokeColor=#E07A5F;fontColor=default;fillColor=#F2CC8F;labelBackgroundColor=none;" parent="J-zH-HObwTacu_c3C7OP-35" source="bPGM_ZroRcGLQEkL-e1h-27" target="6rjCPDDQQb5l-QRya6gR-26" edge="1">
          <mxGeometry relative="1" as="geometry">
            <mxPoint x="345" y="225" as="targetPoint" />
            <Array as="points" />
          </mxGeometry>
        </mxCell>
        <mxCell id="6rjCPDDQQb5l-QRya6gR-2" value="&lt;font color=&quot;#000000&quot;&gt;saveFile(file)&lt;/font&gt;" style="html=1;verticalAlign=bottom;endArrow=block;curved=0;rounded=0;strokeColor=#E07A5F;fontColor=default;fillColor=#F2CC8F;labelBackgroundColor=none;" edge="1" target="6rjCPDDQQb5l-QRya6gR-1" parent="J-zH-HObwTacu_c3C7OP-35">
          <mxGeometry relative="1" as="geometry">
            <mxPoint x="302.25" y="374" as="sourcePoint" />
            <Array as="points">
              <mxPoint x="265" y="374" />
            </Array>
            <mxPoint as="offset" />
          </mxGeometry>
        </mxCell>
        <mxCell id="6rjCPDDQQb5l-QRya6gR-3" value="&lt;font color=&quot;#000000&quot;&gt;message&lt;/font&gt;" style="html=1;verticalAlign=bottom;endArrow=open;dashed=1;endSize=8;curved=0;rounded=0;strokeColor=#E07A5F;fontColor=default;fillColor=#F2CC8F;labelBackgroundColor=none;" edge="1" source="6rjCPDDQQb5l-QRya6gR-1" parent="J-zH-HObwTacu_c3C7OP-35">
          <mxGeometry relative="1" as="geometry">
            <mxPoint x="297.75" y="404" as="targetPoint" />
            <Array as="points">
              <mxPoint x="255" y="404" />
            </Array>
          </mxGeometry>
        </mxCell>
        <mxCell id="6rjCPDDQQb5l-QRya6gR-5" value="" style="shape=umlLifeline;perimeter=lifelinePerimeter;whiteSpace=wrap;html=1;container=1;dropTarget=0;collapsible=0;recursiveResize=0;outlineConnect=0;portConstraint=eastwest;newEdgeStyle={&quot;curved&quot;:0,&quot;rounded&quot;:0};participant=umlControl;strokeColor=#E07A5F;fontColor=#393C56;fillColor=#F2CC8F;labelBackgroundColor=none;" vertex="1" parent="J-zH-HObwTacu_c3C7OP-35">
          <mxGeometry x="420" y="77" width="35.5" height="273" as="geometry" />
        </mxCell>
        <mxCell id="6rjCPDDQQb5l-QRya6gR-18" value="" style="html=1;points=[[0,0,0,0,5],[0,1,0,0,-5],[1,0,0,0,5],[1,1,0,0,-5]];perimeter=orthogonalPerimeter;outlineConnect=0;targetShapes=umlLifeline;portConstraint=eastwest;newEdgeStyle={&quot;curved&quot;:0,&quot;rounded&quot;:0};strokeColor=#E07A5F;fontColor=#393C56;fillColor=#F2CC8F;labelBackgroundColor=none;" vertex="1" parent="6rjCPDDQQb5l-QRya6gR-5">
          <mxGeometry x="12.75" y="213.5" width="10" height="35" as="geometry" />
        </mxCell>
        <mxCell id="6rjCPDDQQb5l-QRya6gR-9" value="Buffered&lt;br&gt;Writer&amp;nbsp;&lt;font color=&quot;#000000&quot;&gt;&lt;br&gt;&lt;/font&gt;" style="text;html=1;align=center;verticalAlign=middle;resizable=0;points=[];autosize=1;strokeColor=none;fillColor=none;fontColor=#393C56;labelBackgroundColor=none;" vertex="1" parent="J-zH-HObwTacu_c3C7OP-35">
          <mxGeometry x="402.75" y="38" width="70" height="40" as="geometry" />
        </mxCell>
        <mxCell id="6rjCPDDQQb5l-QRya6gR-13" value="&lt;font color=&quot;#000000&quot;&gt;List&amp;lt;user&amp;gt;&lt;/font&gt;" style="text;html=1;align=center;verticalAlign=middle;resizable=0;points=[];autosize=1;strokeColor=none;fillColor=none;" vertex="1" parent="J-zH-HObwTacu_c3C7OP-35">
          <mxGeometry x="71" y="220" width="80" height="30" as="geometry" />
        </mxCell>
        <mxCell id="6rjCPDDQQb5l-QRya6gR-14" value="" style="html=1;points=[[0,0,0,0,5],[0,1,0,0,-5],[1,0,0,0,5],[1,1,0,0,-5]];perimeter=orthogonalPerimeter;outlineConnect=0;targetShapes=umlLifeline;portConstraint=eastwest;newEdgeStyle={&quot;curved&quot;:0,&quot;rounded&quot;:0};strokeColor=#E07A5F;fontColor=#393C56;fillColor=#F2CC8F;labelBackgroundColor=none;" vertex="1" parent="J-zH-HObwTacu_c3C7OP-35">
          <mxGeometry x="432.75" y="235" width="10" height="35" as="geometry" />
        </mxCell>
        <mxCell id="6rjCPDDQQb5l-QRya6gR-15" value="&lt;font color=&quot;#000000&quot;&gt;message&lt;/font&gt;" style="html=1;verticalAlign=bottom;endArrow=open;dashed=1;endSize=8;curved=0;rounded=0;exitX=0;exitY=1;exitDx=0;exitDy=-5;strokeColor=#E07A5F;fontColor=default;fillColor=#F2CC8F;labelBackgroundColor=none;" edge="1" source="6rjCPDDQQb5l-QRya6gR-14" parent="J-zH-HObwTacu_c3C7OP-35" target="6rjCPDDQQb5l-QRya6gR-26">
          <mxGeometry relative="1" as="geometry">
            <mxPoint x="139.75" y="296.5" as="targetPoint" />
            <Array as="points" />
          </mxGeometry>
        </mxCell>
        <mxCell id="6rjCPDDQQb5l-QRya6gR-16" value="&lt;font color=&quot;#000000&quot;&gt;write(user)&lt;/font&gt;" style="html=1;verticalAlign=bottom;endArrow=block;curved=0;rounded=0;entryX=0;entryY=0;entryDx=0;entryDy=5;strokeColor=#E07A5F;fontColor=default;fillColor=#F2CC8F;labelBackgroundColor=none;" edge="1" target="6rjCPDDQQb5l-QRya6gR-14" parent="J-zH-HObwTacu_c3C7OP-35" source="6rjCPDDQQb5l-QRya6gR-26">
          <mxGeometry relative="1" as="geometry">
            <mxPoint x="139.75" y="258.5" as="sourcePoint" />
            <mxPoint as="offset" />
          </mxGeometry>
        </mxCell>
        <mxCell id="6rjCPDDQQb5l-QRya6gR-19" value="&lt;font color=&quot;#000000&quot;&gt;newLine()&lt;/font&gt;" style="html=1;verticalAlign=bottom;endArrow=block;curved=0;rounded=0;entryX=0;entryY=0;entryDx=0;entryDy=5;strokeColor=#E07A5F;fontColor=default;fillColor=#F2CC8F;labelBackgroundColor=none;" edge="1" target="6rjCPDDQQb5l-QRya6gR-18" parent="J-zH-HObwTacu_c3C7OP-35" source="6rjCPDDQQb5l-QRya6gR-26">
          <mxGeometry relative="1" as="geometry">
            <mxPoint x="145" y="292.5" as="sourcePoint" />
            <mxPoint as="offset" />
          </mxGeometry>
        </mxCell>
        <mxCell id="6rjCPDDQQb5l-QRya6gR-20" value="&lt;font color=&quot;#000000&quot;&gt;message&lt;/font&gt;" style="html=1;verticalAlign=bottom;endArrow=open;dashed=1;endSize=8;curved=0;rounded=0;exitX=0;exitY=1;exitDx=0;exitDy=-5;strokeColor=#E07A5F;fontColor=default;fillColor=#F2CC8F;labelBackgroundColor=none;" edge="1" source="6rjCPDDQQb5l-QRya6gR-18" parent="J-zH-HObwTacu_c3C7OP-35" target="6rjCPDDQQb5l-QRya6gR-26">
          <mxGeometry relative="1" as="geometry">
            <mxPoint x="145" y="317.5" as="targetPoint" />
            <Array as="points" />
          </mxGeometry>
        </mxCell>
        <mxCell id="6rjCPDDQQb5l-QRya6gR-23" value="" style="shape=umlLifeline;perimeter=lifelinePerimeter;whiteSpace=wrap;html=1;container=1;dropTarget=0;collapsible=0;recursiveResize=0;outlineConnect=0;portConstraint=eastwest;newEdgeStyle={&quot;curved&quot;:0,&quot;rounded&quot;:0};participant=umlEntity;strokeColor=#E07A5F;fontColor=#393C56;fillColor=#F2CC8F;labelBackgroundColor=none;" vertex="1" parent="J-zH-HObwTacu_c3C7OP-35">
          <mxGeometry x="532.75" y="78" width="40" height="272" as="geometry" />
        </mxCell>
        <mxCell id="bPGM_ZroRcGLQEkL-e1h-27" value="" style="html=1;points=[[0,0,0,0,5],[0,1,0,0,-5],[1,0,0,0,5],[1,1,0,0,-5]];perimeter=orthogonalPerimeter;outlineConnect=0;targetShapes=umlLifeline;portConstraint=eastwest;newEdgeStyle={&quot;curved&quot;:0,&quot;rounded&quot;:0};strokeColor=#E07A5F;fontColor=#393C56;fillColor=#F2CC8F;labelBackgroundColor=none;" parent="6rjCPDDQQb5l-QRya6gR-23" vertex="1">
          <mxGeometry x="15" y="79" width="10" height="48" as="geometry" />
        </mxCell>
        <mxCell id="6rjCPDDQQb5l-QRya6gR-21" value="" style="shape=umlLifeline;perimeter=lifelinePerimeter;whiteSpace=wrap;html=1;container=1;dropTarget=0;collapsible=0;recursiveResize=0;outlineConnect=0;portConstraint=eastwest;newEdgeStyle={&quot;curved&quot;:0,&quot;rounded&quot;:0};participant=umlControl;strokeColor=#E07A5F;fontColor=#393C56;fillColor=#F2CC8F;labelBackgroundColor=none;" vertex="1" parent="J-zH-HObwTacu_c3C7OP-35">
          <mxGeometry x="285" y="75" width="35.5" height="445" as="geometry" />
        </mxCell>
        <mxCell id="6rjCPDDQQb5l-QRya6gR-26" value="" style="html=1;points=[[0,0,0,0,5],[0,1,0,0,-5],[1,0,0,0,5],[1,1,0,0,-5]];perimeter=orthogonalPerimeter;outlineConnect=0;targetShapes=umlLifeline;portConstraint=eastwest;newEdgeStyle={&quot;curved&quot;:0,&quot;rounded&quot;:0};strokeColor=#E07A5F;fontColor=#393C56;fillColor=#F2CC8F;labelBackgroundColor=none;" vertex="1" parent="6rjCPDDQQb5l-QRya6gR-21">
          <mxGeometry x="12.75" y="56" width="10" height="338" as="geometry" />
        </mxCell>
        <mxCell id="6rjCPDDQQb5l-QRya6gR-27" value="&lt;font color=&quot;#000000&quot;&gt;generateCSV&lt;/font&gt;" style="html=1;verticalAlign=bottom;endArrow=block;curved=0;rounded=0;strokeColor=#E07A5F;fontColor=default;fillColor=#F2CC8F;labelBackgroundColor=none;" edge="1" parent="J-zH-HObwTacu_c3C7OP-35" source="J-zH-HObwTacu_c3C7OP-58" target="bPGM_ZroRcGLQEkL-e1h-19">
          <mxGeometry relative="1" as="geometry">
            <mxPoint x="87" y="170" as="sourcePoint" />
            <mxPoint x="327" y="170" as="targetPoint" />
            <mxPoint as="offset" />
            <Array as="points">
              <mxPoint x="65" y="140" />
            </Array>
          </mxGeometry>
        </mxCell>
        <mxCell id="6rjCPDDQQb5l-QRya6gR-28" value="&lt;font color=&quot;#000000&quot;&gt;generateCSV&lt;/font&gt;" style="html=1;verticalAlign=bottom;endArrow=block;curved=0;rounded=0;strokeColor=#E07A5F;fontColor=default;fillColor=#F2CC8F;labelBackgroundColor=none;" edge="1" parent="J-zH-HObwTacu_c3C7OP-35" source="bPGM_ZroRcGLQEkL-e1h-19" target="6rjCPDDQQb5l-QRya6gR-21">
          <mxGeometry relative="1" as="geometry">
            <mxPoint x="50" y="150" as="sourcePoint" />
            <mxPoint x="119" y="150" as="targetPoint" />
            <mxPoint as="offset" />
            <Array as="points">
              <mxPoint x="205" y="150" />
            </Array>
          </mxGeometry>
        </mxCell>
        <mxCell id="6rjCPDDQQb5l-QRya6gR-29" value="&lt;font color=&quot;#000000&quot;&gt;User&lt;br&gt;Controller&lt;br&gt;&lt;/font&gt;" style="text;html=1;align=center;verticalAlign=middle;resizable=0;points=[];autosize=1;strokeColor=none;fillColor=none;fontColor=#393C56;labelBackgroundColor=none;" vertex="1" parent="J-zH-HObwTacu_c3C7OP-35">
          <mxGeometry x="264.5" y="43" width="80" height="40" as="geometry" />
        </mxCell>
        <mxCell id="6rjCPDDQQb5l-QRya6gR-10" value="&lt;font color=&quot;#000000&quot;&gt;loop&lt;/font&gt;" style="shape=umlFrame;whiteSpace=wrap;html=1;pointerEvents=0;fillColor=#f8cecc;strokeColor=#b85450;" vertex="1" parent="J-zH-HObwTacu_c3C7OP-35">
          <mxGeometry x="15" y="220" width="655" height="130" as="geometry" />
        </mxCell>
        <mxCell id="6rjCPDDQQb5l-QRya6gR-30" value="&lt;font color=&quot;#000000&quot;&gt;message&lt;/font&gt;" style="html=1;verticalAlign=bottom;endArrow=open;dashed=1;endSize=8;curved=0;rounded=0;strokeColor=#E07A5F;fontColor=default;fillColor=#F2CC8F;labelBackgroundColor=none;" edge="1" parent="J-zH-HObwTacu_c3C7OP-35">
          <mxGeometry relative="1" as="geometry">
            <mxPoint x="119" y="450" as="targetPoint" />
            <Array as="points">
              <mxPoint x="265" y="450" />
            </Array>
            <mxPoint x="297.75" y="450" as="sourcePoint" />
          </mxGeometry>
        </mxCell>
        <mxCell id="6rjCPDDQQb5l-QRya6gR-31" value="&lt;font color=&quot;#000000&quot;&gt;message&lt;/font&gt;" style="html=1;verticalAlign=bottom;endArrow=open;dashed=1;endSize=8;curved=0;rounded=0;strokeColor=#E07A5F;fontColor=default;fillColor=#F2CC8F;labelBackgroundColor=none;" edge="1" parent="J-zH-HObwTacu_c3C7OP-35" source="bPGM_ZroRcGLQEkL-e1h-19" target="J-zH-HObwTacu_c3C7OP-58">
          <mxGeometry relative="1" as="geometry">
            <mxPoint x="45" y="490" as="targetPoint" />
            <Array as="points">
              <mxPoint x="75" y="470" />
            </Array>
            <mxPoint x="312.75" y="490" as="sourcePoint" />
          </mxGeometry>
        </mxCell>
      </root>
    </mxGraphModel>
  </diagram>
</mxfile>
